<svg width="280" height="53" viewBox="0 0 280 53" fill="none" xmlns="http://www.w3.org/2000/svg">
<g id="Title_logo">
<g id="the">
<path id="tlight" d="M9.63256 20.1755H5.42077V41.0792H3.18051V20.1755H0V18.0861H3.18051V8.20169H5.42077V18.0861H9.63256V20.1755Z" fill="#333332"/>
<path id="hlight" d="M30.3072 41.0791H28.0626V26.7846C28.0626 24.2831 27.6393 22.483 26.7395 21.3632C25.8704 20.2303 24.4182 19.6517 22.4242 19.6517C20.0886 19.6517 18.3571 20.4735 17.2703 22.1594C16.1717 23.7968 15.6399 26.4361 15.6399 30.02V41.0791H13.3884V-1.80693e-05H15.6399V21.9194C16.4012 20.2902 17.3059 19.1591 18.4326 18.5281C19.5667 17.8809 21.0656 17.5742 23.0322 17.5742C25.2986 17.5742 27.065 18.3024 28.3632 19.7764C29.6607 21.2348 30.3072 23.2699 30.3072 25.9005V41.0791Z" fill="#333332"/>
<path id="elight" d="M54.8076 27.3303C54.6467 25.0321 53.8331 23.1759 52.3198 21.7705C50.8022 20.3751 48.8693 19.6518 46.5006 19.6518C44.2978 19.6518 42.4073 20.3751 40.8385 21.7705C39.2773 23.2108 38.3988 25.0663 38.1855 27.3552L54.8076 27.3303ZM57.2268 29.4259H38.0459C38.0808 32.6681 38.8346 35.1447 40.3235 36.8562C41.7994 38.6195 43.8607 39.4806 46.5006 39.4806C48.3817 39.4806 50.0029 39.0485 51.3272 38.2329C52.6827 37.4105 53.8087 36.1548 54.6467 34.4726L56.6014 35.4596C55.4897 37.572 54.0874 39.0953 52.4557 40.0816C50.8215 41.0668 48.825 41.5643 46.5006 41.5643C43.1549 41.5643 40.5374 40.4875 38.6338 38.309C36.7359 36.1373 35.7987 33.1838 35.7987 29.4259C35.7987 25.9511 36.8188 23.1173 38.8302 20.9038C40.8647 18.6866 43.4086 17.5743 46.5006 17.5743C49.7235 17.5743 52.3198 18.5794 54.2901 20.6139C56.2392 22.6316 57.2268 25.3731 57.2268 28.7687V29.4259Z" fill="#333332"/>
</g>
<g id="rchitects">
<path id="r" d="M102.133 17.4035H107.601V19.5066C108.596 18.4591 109.507 17.7321 110.27 17.3368C111.08 16.9527 112.003 16.7488 113.102 16.7488C114.549 16.7488 116.037 17.2115 117.603 18.1536L115.096 23.1597C114.079 22.4097 113.065 22.053 112.065 22.053C109.095 22.053 107.601 24.3001 107.601 28.7769V41.0793H102.133V17.4035Z" fill="#333332"/>
<path id="c" d="M138.747 18.4347V25.6923C137.487 24.1641 136.375 23.1172 135.38 22.5716C134.421 21.9674 133.281 21.6694 131.939 21.6694C129.89 21.6694 128.189 22.402 126.825 23.8392C125.469 25.2783 124.789 27.0846 124.789 29.2849C124.789 31.4946 125.445 33.2903 126.758 34.7288C128.087 36.166 129.784 36.8562 131.838 36.8562C133.144 36.8562 134.315 36.6024 135.31 36.0313C136.286 35.4813 137.427 34.4139 138.747 32.8121V40.0223C136.524 41.1846 134.315 41.7476 132.088 41.7476C128.407 41.7476 125.361 40.5685 122.895 38.2017C120.444 35.8367 119.194 32.8639 119.194 29.3311C119.194 25.8064 120.444 22.8104 122.949 20.3881C125.445 17.9664 128.497 16.7487 132.127 16.7487C134.451 16.7487 136.663 17.3105 138.747 18.4347Z" fill="#333332"/>
<path id="h" d="M145.328 0.0254391H150.792V19.3623C152.723 17.6264 154.901 16.7485 157.25 16.7485C159.925 16.7485 162.044 17.6052 163.659 19.3535C165.019 20.845 165.708 23.2698 165.708 26.5688V41.079H160.234V27.0676C160.234 25.1858 159.898 23.8147 159.228 22.9636C158.549 22.0951 157.483 21.6692 155.977 21.6692C154.067 21.6692 152.723 22.2828 151.938 23.4562C151.184 24.6565 150.792 26.7184 150.792 29.6283V41.079H145.328V0.0254391Z" fill="#333332"/>
<path id="i" d="M178.094 41.079H172.625V17.4032H178.094V41.079ZM171.82 7.57113C171.82 6.60968 172.136 5.75733 172.85 5.07272C173.557 4.38749 174.37 4.04769 175.348 4.04769C176.341 4.04769 177.169 4.38749 177.89 5.07272C178.571 5.74985 178.932 6.60093 178.932 7.57984C178.932 8.57683 178.571 9.41422 177.89 10.1138C177.217 10.7972 176.387 11.1463 175.382 11.1463C174.386 11.1463 173.557 10.7972 172.85 10.1138C172.136 9.41422 171.82 8.55502 171.82 7.57113Z" fill="#333332"/>
<path id="tback" d="M190.685 22.496V41.079H185.194V22.496H182.875V17.4038H185.194V8.7296H190.685V17.4038H194.921V22.496H190.685Z" fill="#333332"/>
<path id="e" d="M215.032 26.0495C214.261 23.1502 212.441 21.6694 209.498 21.6694C208.83 21.6694 208.216 21.771 207.633 21.9749C207.064 22.1894 206.513 22.4831 206.038 22.869C205.572 23.245 205.158 23.6989 204.829 24.2314C204.471 24.7601 204.208 25.3842 204.04 26.0495H215.032ZM220.639 30.5375H203.688C203.803 32.4729 204.455 34.0304 205.572 35.1721C206.684 36.3112 208.129 36.8568 209.88 36.8568C211.235 36.8568 212.367 36.5494 213.244 35.8941C214.137 35.2568 215.14 34.051 216.228 32.302L220.855 34.8896C220.143 36.073 219.396 37.1292 218.599 37.9978C217.801 38.8651 216.949 39.5815 216.063 40.1508C215.147 40.687 214.16 41.1085 213.122 41.3772C212.052 41.6322 210.909 41.7476 209.678 41.7476C206.156 41.7476 203.306 40.6452 201.16 38.3532C199.032 36.0599 197.973 33.044 197.973 29.2849C197.973 25.5096 198.987 22.4962 201.072 20.1755C203.158 17.881 205.93 16.7487 209.392 16.7487C212.865 16.7487 215.624 17.8554 217.666 20.0688C219.659 22.2829 220.65 25.3213 220.65 29.2194L220.639 30.5375Z" fill="#333332"/>
<path id="c_2" d="M245.072 18.4347V25.6923C243.792 24.1641 242.688 23.1172 241.7 22.5716C240.72 21.9674 239.584 21.6694 238.261 21.6694C236.207 21.6694 234.498 22.402 233.135 23.8392C231.774 25.2783 231.108 27.0846 231.108 29.2849C231.108 31.4946 231.764 33.2903 233.074 34.7288C234.377 36.166 236.092 36.8562 238.132 36.8562C239.473 36.8562 240.635 36.6024 241.615 36.0313C242.581 35.4813 243.743 34.4139 245.072 32.8121V40.0223C242.836 41.1846 240.635 41.7476 238.386 41.7476C234.716 41.7476 231.663 40.5685 229.193 38.2017C226.744 35.8367 225.525 32.8639 225.525 29.3311C225.525 25.8064 226.768 22.8104 229.248 20.3881C231.751 17.9664 234.823 16.7487 238.438 16.7487C240.778 16.7487 242.96 17.3105 245.072 18.4347Z" fill="#333332"/>
<path id="tback_2" d="M255.979 22.496V41.079H250.524V22.496H248.169V17.4038H250.524V8.7296H255.979V17.4038H260.257V22.496H255.979Z" fill="#333332"/>
<path id="s" d="M277.734 21.4223L273.187 23.8396C272.483 22.4018 271.61 21.6692 270.538 21.6692C270.067 21.6692 269.625 21.8612 269.257 22.1892C268.916 22.529 268.729 22.9287 268.729 23.4562C268.729 24.3602 269.78 25.2706 271.876 26.1397C274.803 27.3905 276.739 28.5483 277.761 29.5952C278.745 30.6508 279.253 32.0718 279.253 33.8612C279.253 36.1377 278.42 38.05 276.73 39.5732C275.083 41.0378 273.096 41.748 270.785 41.748C266.816 41.748 264.026 39.8201 262.362 35.9456L267.005 33.7789C267.672 34.9125 268.177 35.6407 268.519 35.9456C269.164 36.5592 269.962 36.8566 270.904 36.8566C272.756 36.8566 273.672 36.0392 273.672 34.3357C273.672 33.3762 272.952 32.4646 271.538 31.6253C270.985 31.3541 270.429 31.0679 269.875 30.8223C269.314 30.5579 268.758 30.2942 268.187 30.0198C266.599 29.2199 265.485 28.4785 264.836 27.6792C264.026 26.7009 263.601 25.4271 263.601 23.8664C263.601 21.8051 264.293 20.1104 265.714 18.7674C267.151 17.4256 268.916 16.7485 270.97 16.7485C274.007 16.7485 276.245 18.3029 277.734 21.4223Z" fill="#333332"/>
</g>
<g id="A">
<path id="bottoma" d="M90.432 52.8664H67.1079V47.6177H90.432V52.8664Z" fill="#94443D"/>
<path id="topa" d="M90.7929 41.1175H97.0018L79.0417 1.14258L60.4462 41.1175H66.5566L78.9719 13.8659L90.7929 41.1175Z" fill="#913B2E"/>
</g>
</g>
</svg>
